<?xml version="1.0" standalone="no"?>
<!DOCTYPE svg PUBLIC "-//W3C//DTD SVG 20010904//EN"
 "http://www.w3.org/TR/2001/REC-SVG-20010904/DTD/svg10.dtd">
<svg version="1.0" xmlns="http://www.w3.org/2000/svg"
 width="580.000000pt" height="760.000000pt" viewBox="0 0 580.000000 760.000000"
 preserveAspectRatio="xMidYMid meet">

<g transform="translate(0.000000,760.000000) scale(0.100000,-0.100000)"
fill="#000000" stroke="none">
<path d="M0 3800 l0 -3800 2900 0 2900 0 0 303 0 302 -76 45 c-62 36 -74 48
-70 64 4 14 -5 31 -26 53 -17 18 -28 36 -25 40 10 9 109 -44 158 -85 l39 -34
0 345 0 345 -65 41 c-56 35 -72 41 -120 41 l-56 0 -129 121 c-72 66 -130 126
-130 134 0 7 7 32 15 55 18 50 16 53 -61 138 -45 48 -55 54 -111 64 -45 8 -64
17 -68 29 -3 10 -21 27 -40 38 -27 15 -46 44 -89 130 -60 120 -136 315 -136
352 -1 52 -24 80 -95 117 -66 35 -97 72 -60 72 8 0 27 7 41 17 38 24 64 10
189 -100 23 -20 47 -37 52 -37 5 0 22 -14 39 -31 16 -17 41 -37 56 -45 15 -8
33 -25 40 -39 48 -90 72 -132 82 -145 7 -8 20 -32 30 -52 9 -20 21 -40 27 -44
5 -3 21 -29 34 -58 13 -29 31 -59 40 -66 8 -7 15 -17 15 -22 0 -6 14 -28 31
-49 21 -27 39 -39 56 -39 50 0 95 -45 178 -181 6 -9 27 -42 48 -73 20 -31 37
-60 37 -64 0 -12 64 -72 76 -72 6 0 21 -11 34 -25 13 -14 27 -25 32 -25 4 0 8
1359 8 3020 l0 3020 -2900 0 -2900 0 0 -3800z m1760 2150 l0 -210 -25 0 c-19
0 -25 5 -25 21 l0 20 -26 -20 c-36 -28 -102 -28 -138 0 -78 61 -74 200 6 249
39 23 96 26 124 5 10 -8 22 -15 27 -15 4 0 7 36 7 80 0 79 0 80 25 80 l25 0 0
-210z m-730 170 c0 -18 -7 -20 -60 -20 l-60 0 0 -180 0 -180 -25 0 -25 0 -2
178 -3 177 -57 3 c-50 3 -58 6 -58 22 0 19 8 20 145 20 138 0 145 -1 145 -20z
m1461 -167 c34 -104 64 -194 67 -200 3 -9 -6 -13 -26 -13 -28 0 -32 4 -49 58
l-20 57 -70 3 -70 3 -18 -61 c-17 -56 -20 -60 -48 -60 -19 0 -28 4 -25 13 3 6
33 96 67 200 l63 187 33 0 33 0 63 -187z m-1401 56 l0 -20 26 20 c37 29 64 27
64 -3 0 -18 -7 -25 -30 -30 -43 -8 -60 -54 -60 -156 0 -79 0 -80 -25 -80 l-25
0 0 145 0 145 25 0 c19 0 25 -5 25 -21z m307 -3 c27 -24 28 -28 33 -145 5
-121 5 -121 -18 -121 -12 0 -25 7 -28 15 -5 13 -8 13 -27 0 -34 -24 -94 -19
-122 10 -65 64 3 155 118 155 33 0 36 21 7 50 -22 22 -54 25 -93 11 -20 -8
-27 -6 -31 6 -4 9 -5 17 -4 18 44 34 126 34 165 1z m621 8 c30 -21 52 -66 52
-109 l0 -35 -101 0 c-99 0 -100 0 -94 -22 15 -48 41 -63 110 -62 55 1 65 -2
65 -16 0 -32 -108 -42 -161 -15 -89 47 -92 203 -5 256 38 23 104 25 134 3z
m642 -4 c0 -20 0 -20 33 0 115 70 229 -59 173 -195 -27 -63 -123 -97 -172 -60
-10 8 -22 15 -26 15 -5 0 -8 -34 -8 -75 0 -73 -1 -75 -25 -75 l-25 0 0 205 0
205 25 0 c18 0 25 -5 25 -20z m330 0 c0 -20 0 -20 33 0 115 70 229 -59 173
-195 -27 -63 -123 -97 -172 -60 -10 8 -22 15 -26 15 -5 0 -8 -34 -8 -75 0 -73
-1 -75 -25 -75 l-25 0 0 205 0 205 25 0 c18 0 25 -5 25 -20z m1202 -585 c3
-123 1 -135 -14 -135 -10 0 -18 5 -18 10 0 7 -6 7 -19 0 -58 -31 -111 11 -111
87 0 33 6 50 25 68 26 27 73 33 93 13 9 -9 12 0 12 40 0 39 4 52 14 52 12 0
15 -25 18 -135z m738 85 c0 -47 1 -50 19 -40 29 15 62 12 83 -7 24 -22 27
-173 3 -173 -12 0 -15 13 -15 61 0 69 -12 99 -40 99 -36 0 -50 -27 -50 -96 0
-50 -3 -64 -15 -64 -13 0 -15 22 -15 135 0 113 2 135 15 135 11 0 15 -12 15
-50z m-2211 -83 c23 -67 41 -125 41 -130 0 -4 -8 -7 -18 -7 -13 0 -22 12 -31
40 -11 39 -13 40 -56 40 -43 0 -45 -1 -56 -40 -9 -29 -18 -40 -32 -40 -11 0
-17 5 -14 13 2 6 22 65 43 130 33 102 41 117 60 117 20 0 27 -15 63 -123z
m779 100 c2 -12 -3 -17 -17 -17 -12 0 -21 6 -21 13 0 31 32 34 38 4z m1220 0
c2 -12 -3 -17 -17 -17 -12 0 -21 6 -21 13 0 31 32 34 38 4z m-938 -22 c0 -20
5 -25 25 -25 16 0 25 -6 25 -15 0 -9 -9 -15 -25 -15 -25 0 -26 -1 -23 -62 3
-57 5 -63 26 -66 33 -5 28 -32 -6 -32 -43 0 -52 17 -52 92 0 54 -3 68 -15 68
-8 0 -15 7 -15 15 0 8 7 15 15 15 9 0 15 9 15 25 0 16 6 25 15 25 9 0 15 -9
15 -25z m1040 0 c0 -20 5 -25 25 -25 16 0 25 -6 25 -15 0 -9 -9 -15 -25 -15
-25 0 -26 -1 -23 -62 3 -57 5 -63 26 -66 33 -5 28 -32 -6 -32 -43 0 -52 17
-52 92 0 54 -3 68 -15 68 -8 0 -15 7 -15 15 0 8 7 15 15 15 9 0 15 9 15 25 0
16 6 25 15 25 9 0 15 -9 15 -25z m-1927 -31 c12 -12 -5 -32 -23 -27 -46 12
-64 -28 -19 -42 49 -16 68 -84 30 -105 -23 -12 -71 -13 -88 -2 -20 13 0 27 37
27 49 0 50 25 3 50 -44 23 -54 56 -27 86 16 18 73 27 87 13z m150 0 c12 -12
-5 -32 -23 -27 -46 12 -64 -28 -19 -42 49 -16 68 -84 30 -105 -23 -12 -71 -13
-88 -2 -20 13 0 27 37 27 49 0 50 25 3 50 -44 23 -54 56 -27 86 16 18 73 27
87 13z m182 -19 c57 -56 16 -165 -62 -165 -51 0 -83 37 -83 95 0 59 32 95 85
95 25 0 44 -8 60 -25z m205 10 c0 -11 -11 -15 -39 -15 -30 0 -44 -6 -55 -22
-36 -52 -7 -108 55 -108 55 0 47 -24 -9 -28 -58 -4 -92 29 -92 91 0 62 35 97
96 97 32 0 44 -4 44 -15z m70 -80 c0 -78 -3 -95 -15 -95 -12 0 -15 17 -15 95
0 78 3 95 15 95 12 0 15 -17 15 -95z m163 78 c10 -12 16 -43 19 -96 3 -68 1
-77 -14 -77 -10 0 -18 5 -18 12 0 9 -3 9 -12 0 -29 -29 -98 -6 -98 33 0 36 33
65 75 65 23 0 35 5 35 14 0 23 -28 39 -60 34 -17 -3 -34 0 -37 5 -17 28 84 38
110 10z m314 -5 c13 -13 23 -33 23 -50 0 -28 -1 -28 -60 -28 -51 0 -60 -3 -60
-18 0 -29 21 -42 68 -42 60 0 51 -24 -11 -28 -62 -4 -97 27 -97 87 0 83 82
131 137 79z m472 -46 c8 -34 17 -62 20 -62 4 0 15 29 25 65 26 91 46 89 73 -7
l19 -73 19 73 c15 58 23 72 38 72 11 0 17 -5 15 -12 -3 -7 -15 -50 -29 -96
-20 -69 -27 -82 -43 -80 -14 2 -24 18 -35 60 -9 31 -19 59 -22 62 -3 4 -14
-23 -24 -59 -30 -111 -56 -85 -101 98 -6 25 -4 28 12 25 14 -2 22 -19 33 -66z
m271 -27 c0 -78 -3 -95 -15 -95 -12 0 -15 17 -15 95 0 78 3 95 15 95 12 0 15
-17 15 -95z m-312 -777 c6 -52 -63 -74 -88 -28 -13 24 3 67 27 73 26 6 58 -17
61 -45z m-1361 16 c12 -18 11 -24 -8 -47 -11 -15 -28 -27 -36 -27 -25 0 -53
30 -53 56 0 45 70 58 97 18z m-2212 -214 l0 -225 -85 0 -85 0 -5 135 -5 135
-80 3 c-44 2 -84 7 -89 12 -9 9 -9 147 0 162 3 5 83 7 177 6 l172 -3 0 -225z
m211 211 c34 -21 49 -66 35 -104 -12 -32 -33 -47 -73 -54 -29 -4 -39 0 -66 27
-48 47 -38 105 23 138 29 16 46 15 81 -7z m338 10 c5 -8 -17 -73 -45 -136 -5
-11 -35 -85 -67 -165 l-58 -145 -102 -3 c-80 -2 -102 0 -102 11 0 7 4 17 9 23
4 5 43 99 86 209 43 110 83 203 89 207 16 11 184 10 190 -1z m541 -36 l0 -40
-60 -5 -60 -5 -5 -180 -5 -180 -35 0 -35 0 -5 180 -5 180 -60 5 c-64 5 -73 15
-61 66 l7 24 162 -2 162 -3 0 -40z m960 -185 l0 -225 -33 -3 c-18 -2 -39 2
-47 8 -10 9 -26 7 -63 -6 -49 -17 -49 -17 -98 7 -63 31 -94 82 -94 157 0 119
108 204 201 158 18 -9 36 -16 41 -16 4 0 8 31 8 68 0 38 3 72 7 76 4 4 23 6
43 4 l35 -3 0 -225z m1027 213 c9 -10 25 -43 36 -73 47 -124 90 -215 103 -218
10 -2 29 38 63 130 62 172 66 178 116 178 47 0 49 -9 21 -73 -10 -23 -31 -73
-46 -112 -15 -38 -36 -89 -46 -112 -11 -24 -19 -47 -19 -53 0 -11 -6 -24 -33
-75 -13 -24 -23 -31 -55 -33 -39 -3 -39 -3 -71 62 -17 36 -31 67 -31 70 0 4
-9 25 -19 49 -55 118 -111 253 -111 264 0 20 74 16 92 -4z m-1559 -118 c21
-11 34 -12 48 -4 11 5 34 9 51 7 l30 -3 1 -160 1 -160 -33 -3 c-18 -2 -39 2
-46 8 -11 9 -25 8 -61 -6 -39 -15 -51 -16 -82 -4 -50 17 -81 47 -103 98 -25
56 -24 92 2 147 38 81 123 116 192 80z m992 1 c55 -23 66 -57 63 -199 l-3
-122 -35 0 -35 0 -5 112 c-4 91 -8 115 -24 132 -25 27 -57 27 -84 -2 -19 -20
-22 -36 -24 -132 l-3 -110 -40 0 -40 0 0 160 0 160 34 3 c18 2 38 -1 43 -6 7
-7 21 -5 42 4 40 17 69 17 111 0z m342 -2 c25 -13 37 -14 46 -5 6 6 26 11 44
11 l33 0 0 -189 c0 -179 -1 -190 -23 -222 -30 -44 -79 -68 -143 -69 -56 0
-154 35 -154 55 0 6 11 22 24 34 23 22 26 22 48 7 31 -22 110 -21 135 2 26 23
43 66 33 82 -6 10 -14 8 -38 -9 -74 -52 -176 2 -211 111 -10 29 -9 46 0 80 19
63 38 89 84 109 50 23 77 24 122 3z m1065 -21 c34 -33 58 -83 58 -124 l0 -29
-125 0 c-115 0 -125 -2 -125 -18 0 -50 93 -75 153 -43 23 12 31 12 52 1 33
-17 32 -34 -4 -59 -94 -67 -235 -33 -277 68 -34 82 -1 180 76 219 63 33 149
26 192 -15z m-2729 5 l6 -22 24 22 c13 12 33 22 46 22 20 0 22 -4 19 -37 -3
-33 -7 -38 -29 -41 -53 -6 -68 -37 -71 -147 l-3 -100 -40 0 -40 0 -3 163 -2
162 44 0 c37 0 45 -4 49 -22z m1017 -144 l0 -165 -41 3 -41 3 1 158 c0 86 0
159 1 162 0 3 18 5 40 5 l40 0 0 -166z m1365 1 l0 -160 -40 0 -40 0 -3 163 -3
163 43 -3 43 -3 0 -160z m502 153 c4 -7 17 -49 29 -93 28 -106 43 -108 72 -8
29 101 34 108 67 108 33 0 38 -7 67 -107 21 -71 43 -99 52 -65 2 6 8 28 14 47
5 19 16 56 23 83 13 47 14 47 56 47 44 0 50 -7 33 -38 -5 -9 -23 -62 -40 -117
-54 -174 -52 -170 -89 -173 -19 -2 -39 2 -45 8 -6 6 -22 45 -36 86 -14 42 -29
77 -35 78 -5 0 -21 -33 -35 -74 -33 -97 -35 -100 -76 -100 -40 0 -37 -6 -93
170 -21 69 -42 133 -46 143 -6 14 -1 17 33 17 23 0 44 -6 49 -12z m-1993
-1063 c32 -22 67 -45 78 -51 10 -6 29 -21 42 -33 12 -11 27 -21 32 -21 11 0
69 -59 75 -75 2 -6 31 -50 64 -98 33 -48 67 -98 75 -111 58 -89 117 -148 175
-175 11 -5 33 -23 49 -40 17 -17 35 -31 40 -31 28 -1 78 -63 120 -147 25 -51
46 -98 46 -104 0 -7 21 -35 48 -64 70 -78 83 -96 137 -205 28 -54 55 -100 61
-100 6 0 33 -43 60 -95 l49 -96 168 -131 c100 -77 178 -146 192 -168 13 -21
42 -48 64 -61 32 -18 48 -38 81 -105 41 -80 44 -84 111 -119 50 -26 87 -57
141 -116 118 -130 113 -137 -36 -59 -52 27 -99 50 -105 50 -6 0 -3 -19 6 -46
8 -25 13 -48 9 -51 -3 -3 -23 6 -43 20 -44 30 -93 50 -102 42 -3 -4 19 -53 49
-110 30 -57 52 -107 48 -111 -4 -4 -55 37 -113 91 -79 73 -119 119 -158 182
-28 47 -62 93 -76 104 -23 18 -24 18 -38 2 -12 -17 -21 -10 -98 72 -46 50
-117 127 -157 172 -73 81 -94 96 -155 108 -18 4 -60 28 -94 54 -48 37 -74 69
-118 144 -31 52 -83 123 -114 156 -49 53 -61 61 -92 61 -27 0 -52 11 -92 40
-31 22 -59 38 -61 35 -3 -3 3 -23 13 -45 10 -22 16 -43 13 -46 -3 -3 -27 9
-54 25 -58 37 -64 38 -64 6 0 -14 -3 -25 -6 -25 -14 0 -204 106 -208 116 -2 6
-1 26 3 45 7 34 -8 87 -32 118 -6 7 -10 26 -9 41 2 16 -1 31 -7 35 -6 3 -11
17 -11 30 0 13 -10 34 -22 45 -17 16 -20 23 -10 29 9 5 12 30 10 81 l-3 74
-74 52 c-41 29 -78 51 -81 49 -4 -3 -10 -22 -14 -42 -7 -48 -50 -103 -66 -87
-14 14 5 133 27 178 12 24 13 30 2 37 -8 5 -20 2 -30 -7 -8 -7 -21 -14 -27
-14 -17 0 -102 131 -102 158 0 13 14 62 30 109 21 59 27 90 20 97 -5 5 -10 29
-10 53 0 39 2 43 24 43 14 0 28 -4 31 -10 3 -5 30 -10 58 -10 l52 0 79 -82
c43 -46 89 -100 103 -121 28 -45 51 -41 27 5 -9 17 -18 64 -21 105 l-6 75 -48
30 c-26 16 -51 38 -54 49 -8 23 12 52 29 41 6 -4 37 -25 70 -47z m-431 -534
c43 -45 57 -67 57 -89 0 -18 11 -43 26 -61 28 -34 44 -80 44 -128 0 -19 13
-54 30 -81 27 -45 29 -53 21 -96 -5 -26 -12 -50 -15 -54 -8 -7 -45 37 -46 53
0 21 -56 78 -68 71 -7 -4 -12 -31 -12 -62 0 -62 -12 -69 -50 -29 -35 38 -53
32 -78 -26 -13 -32 -26 -49 -34 -46 -18 6 -13 47 11 98 32 66 28 120 -14 182
-49 72 -49 130 1 230 39 76 52 97 64 97 4 0 32 -27 63 -59z m-552 -385 c-91
-163 -123 -201 -248 -302 -75 -62 -141 -124 -172 -166 -28 -37 -51 -71 -51
-75 0 -5 36 -39 80 -76 44 -38 80 -74 80 -80 0 -17 -99 -127 -114 -127 -27 0
-76 66 -86 115 -35 170 -34 161 -5 220 14 30 30 57 35 60 12 8 100 134 100
144 0 5 18 24 40 42 37 31 108 93 235 204 57 50 117 94 128 95 5 0 -5 -24 -22
-54z m925 -98 c-16 -55 -18 -79 -8 -90 5 -7 21 -40 34 -73 19 -45 45 -81 107
-144 52 -53 92 -104 106 -135 15 -35 54 -81 119 -146 131 -129 129 -142 -12
-59 -253 148 -257 150 -281 144 -18 -5 -35 3 -72 34 -26 23 -59 45 -73 51 -16
6 -34 27 -48 54 l-21 45 36 69 c32 61 37 79 37 138 0 63 2 70 32 101 37 38 53
42 44 11z m-1901 -308 c11 -9 27 -19 36 -22 8 -3 51 -30 95 -59 43 -30 93 -61
109 -69 71 -35 68 -62 -8 -68 -89 -6 -97 -7 -97 -15 0 -5 16 -33 36 -63 33
-49 104 -203 104 -225 0 -19 -24 -7 -68 33 -25 23 -47 37 -49 31 -2 -5 12 -43
31 -84 18 -41 52 -114 75 -162 40 -86 49 -117 34 -117 -5 0 -55 41 -113 90
-58 50 -108 90 -113 90 -10 0 13 -44 90 -170 46 -75 85 -124 138 -172 77 -72
81 -80 95 -193 5 -38 14 -104 20 -145 24 -164 27 -205 20 -213 -7 -8 -113 73
-273 207 -26 22 -50 51 -53 65 -3 14 -16 64 -29 111 -12 47 -35 132 -50 190
-15 58 -36 134 -46 170 -18 64 -28 208 -45 649 l-7 173 24 -7 c13 -4 33 -15
44 -25z m3844 -29 c20 -13 7 -40 -51 -101 -37 -39 -53 -50 -55 -39 -5 21 31
103 56 128 23 23 30 25 50 12z m-2745 -239 c72 -54 180 -134 240 -178 59 -43
136 -99 170 -124 385 -283 344 -256 551 -365 61 -32 116 -63 124 -69 9 -7 53
-10 121 -8 l108 3 248 -192 c264 -204 394 -308 394 -314 0 -10 -44 14 -168 93
-73 46 -135 82 -139 79 -3 -3 9 -31 27 -62 17 -30 30 -60 28 -67 -2 -6 -68 45
-147 113 -259 225 -274 236 -330 244 -58 8 -168 -2 -177 -16 -3 -5 13 -56 35
-113 23 -58 41 -107 41 -110 0 -19 -43 6 -180 107 -135 97 -189 146 -412 372
-141 143 -260 256 -264 252 -15 -15 17 -124 96 -327 74 -189 89 -240 74 -240
-3 0 -31 23 -63 50 -32 28 -61 50 -64 50 -17 0 78 -165 123 -215 l50 -55 2
-90 c1 -50 2 -98 2 -107 1 -10 -6 -19 -14 -21 -18 -3 -289 182 -296 203 -3 7
9 61 26 120 30 102 31 110 20 183 -28 194 -9 159 -241 443 -69 85 -131 164
-137 176 -13 23 -17 265 -5 276 13 14 29 5 157 -91z m3191 -81 c-8 -17 -20
-31 -25 -31 -18 0 -10 46 12 70 19 20 23 22 26 8 2 -9 -4 -30 -13 -47z m8
-664 c100 -153 131 -207 119 -207 -6 0 -34 19 -62 43 -29 23 -65 51 -80 62
-15 10 -39 39 -54 62 -23 38 -39 49 -63 41 -5 -2 -8 -14 -8 -28 0 -21 -4 -25
-25 -22 -13 1 -37 -2 -52 -7 -32 -11 -33 -7 -13 29 8 14 14 39 15 56 0 28 5
33 63 56 34 15 68 27 75 27 6 1 45 -50 85 -112z"/>
<path d="M1583 5975 c-45 -32 -49 -141 -7 -176 23 -19 80 -16 103 5 45 41 35
152 -14 174 -35 16 -56 15 -82 -3z"/>
<path d="M2366 5997 c-14 -47 -26 -88 -26 -91 0 -3 25 -6 55 -6 30 0 55 1 55
3 0 1 -13 42 -29 90 l-28 88 -27 -84z"/>
<path d="M1295 5868 c-11 -6 -21 -11 -21 -12 -1 -1 -4 -11 -8 -22 -4 -14 -1
-28 9 -38 38 -38 105 -3 105 54 0 27 -3 30 -32 30 -18 0 -42 -6 -53 -12z"/>
<path d="M1907 5978 c-9 -7 -21 -25 -26 -40 l-11 -28 75 0 c83 0 91 7 54 54
-22 29 -64 35 -92 14z"/>
<path d="M2710 5977 c-36 -18 -52 -55 -46 -107 10 -106 128 -123 156 -22 10
41 -1 102 -23 120 -22 18 -61 23 -87 9z"/>
<path d="M3040 5977 c-36 -18 -52 -55 -46 -107 10 -106 128 -123 156 -22 10
41 -1 102 -23 120 -22 18 -61 23 -87 9z"/>
<path d="M4076 5428 c-31 -44 -7 -108 39 -108 27 0 45 26 45 65 0 62 -52 88
-84 43z"/>
<path d="M2639 5455 l-16 -55 32 0 33 0 -14 48 c-8 26 -15 50 -17 54 -1 4 -9
-17 -18 -47z"/>
<path d="M3126 5428 c-9 -12 -16 -32 -16 -43 0 -31 28 -65 54 -65 31 0 50 25
50 65 0 18 -6 40 -13 49 -19 23 -57 20 -75 -6z"/>
<path d="M3593 5365 c-27 -19 -20 -45 11 -45 27 0 46 18 46 42 0 22 -28 24
-57 3z"/>
<path d="M3902 5444 c-38 -26 -28 -44 24 -44 38 0 45 3 40 16 -3 9 -6 17 -6
19 0 3 -8 9 -18 14 -14 7 -25 6 -40 -5z"/>
<path d="M2663 4416 c-23 -20 -28 -32 -28 -70 0 -55 24 -84 78 -93 31 -5 40
-1 67 25 87 88 -23 218 -117 138z"/>
<path d="M2255 4414 c-54 -59 -12 -164 65 -164 22 0 41 9 61 29 38 39 39 87 3
130 -35 42 -93 44 -129 5z"/>
<path d="M3587 4412 c-37 -39 -36 -81 4 -121 32 -33 65 -39 102 -19 33 17 46
39 47 79 0 82 -96 121 -153 61z"/>
<path d="M4581 4431 c-27 -21 -23 -58 5 -47 9 3 42 6 75 6 66 0 78 15 34 44
-32 21 -84 20 -114 -3z"/>
<path d="M2997 2920 c7 -36 1 -37 -43 -9 -25 15 -34 17 -34 7 0 -28 54 -104
109 -155 47 -42 64 -67 87 -124 27 -66 39 -81 162 -198 74 -69 138 -127 143
-129 11 -4 12 218 1 234 -4 6 -48 47 -99 90 -51 44 -117 113 -148 154 -48 65
-153 160 -176 160 -5 0 -6 -13 -2 -30z"/>
</g>
</svg>
